<?xml version="1.0" encoding="UTF-8"?>
<!DOCTYPE svg PUBLIC "-//W3C//DTD SVG 1.1//EN" "http://www.w3.org/Graphics/SVG/1.1/DTD/svg11.dtd">
<!-- Creator: CorelDRAW -->
<svg xmlns="http://www.w3.org/2000/svg" xml:space="preserve" width="2.83333in" height="2.83333in" version="1.1" style="shape-rendering:geometricPrecision; text-rendering:geometricPrecision; image-rendering:optimizeQuality; fill-rule:evenodd; clip-rule:evenodd"
viewBox="0 0 2833 2833"
 xmlns:xlink="http://www.w3.org/1999/xlink">
 <defs>
  <style type="text/css">
   <![CDATA[
    .fil2 {fill:#4D4D4D}
    .fil5 {fill:#7ED63F}
    .fil1 {fill:#A8EDBF}
    .fil0 {fill:#BBBEC7}
    .fil4 {fill:#D9F2F2}
    .fil3 {fill:#FFE600}
   ]]>
  </style>
 </defs>
 <g id="Layer_x0020_1">
  <metadata id="CorelCorpID_0Corel-Layer"/>
  <circle class="fil0" cx="1417" cy="1417" r="1417"/>
  <circle class="fil1" cx="1417" cy="1417" r="1417"/>
  <path class="fil2" d="M1172 784c19,-33 40,-55 66,-79 88,-77 218,-88 322,-29 43,25 77,61 108,113l565 984c106,185 -22,422 -243,422l-1145 0c-215,0 -354,-232 -243,-422l570 -989zm153 619l0 -283c0,-50 40,-92 92,-92 51,0 91,42 91,92l0 283c0,50 -41,92 -91,92 -50,0 -92,-40 -92,-92zm92 -325c-24,0 -43,20 -43,43l0 284c0,56 86,56 86,0l0 -285c0,-24 -20,-42 -43,-42zm0 728c-60,0 -109,-49 -109,-110 0,-59 49,-108 109,-108 59,0 108,49 108,108 0,61 -49,110 -108,110zm0 -168c-32,0 -60,28 -60,60 0,79 119,81 119,0 0,-34 -26,-60 -59,-60zm-142 -792c63,-112 227,-117 289,7l566 982c61,109 -17,242 -140,242l-1145 0c-111,0 -192,-111 -153,-214 4,-12 4,-16 12,-29l571 -988zm244 25c-40,-77 -129,-78 -173,-37 -9,9 -20,24 -28,36l-572 986c-48,89 18,171 97,171l1147 0c83,0 142,-92 97,-171l-568 -985zm-306 -62l-570 989c-19,32 -30,81 -30,118 0,127 104,232 233,232l1147 0c183,0 287,-200 201,-350l-570 -982c-27,-46 -55,-75 -91,-96 -84,-50 -191,-40 -265,22 -23,23 -35,33 -55,67z"/>
  <path class="fil3" d="M1417 1078c-24,0 -43,20 -43,43l0 284c0,56 86,56 86,0l0 -285c0,-24 -20,-42 -43,-42z"/>
  <path class="fil3" d="M1476 1698c0,-34 -26,-60 -59,-60 -32,0 -60,28 -60,60 0,79 119,81 119,0z"/>
  <path class="fil4" d="M1417 1588c59,0 108,49 108,108 0,61 -49,110 -108,110 -60,0 -109,-49 -109,-110 0,-59 49,-108 109,-108zm91 -468l0 283c0,50 -41,92 -91,92 -50,0 -92,-40 -92,-92l0 -283c0,-50 40,-92 92,-92 51,0 91,42 91,92zm-190 -250l-572 986c-48,89 18,171 97,171l1147 0c83,0 142,-92 97,-171l-568 -985c-40,-77 -129,-78 -173,-37 -9,9 -20,24 -28,36z"/>
  <path class="fil5" d="M1564 853l566 982c61,109 -17,242 -140,242l-1145 0c-111,0 -192,-111 -153,-214 4,-12 4,-16 12,-29l571 -988c63,-112 227,-117 289,7zm-296 -111c-23,23 -35,33 -55,67l-570 989c-19,32 -30,81 -30,118 0,127 104,232 233,232l1147 0c183,0 287,-200 201,-350l-570 -982c-27,-46 -55,-75 -91,-96 -84,-50 -191,-40 -265,22z"/>
 </g>
</svg>
