<?xml version="1.0" encoding="UTF-8"?>
<!DOCTYPE svg PUBLIC "-//W3C//DTD SVG 1.1//EN" "http://www.w3.org/Graphics/SVG/1.1/DTD/svg11.dtd">
<!-- Creator: CorelDRAW -->
<svg xmlns="http://www.w3.org/2000/svg" xml:space="preserve" width="1.99999in" height="1.99999in" version="1.1" style="shape-rendering:geometricPrecision; text-rendering:geometricPrecision; image-rendering:optimizeQuality; fill-rule:evenodd; clip-rule:evenodd"
viewBox="0 0 2000 2000"
 xmlns:xlink="http://www.w3.org/1999/xlink">
 <defs>
  <style type="text/css">
   <![CDATA[
    .fil0 {fill:#000002}
    .fil3 {fill:#F1F1F1}
    .fil2 {fill:#FE5022}
    .fil1 {fill:#FFE600}
   ]]>
  </style>
 </defs>
 <g id="Layer_x0020_1">
  <metadata id="CorelCorpID_0Corel-Layer"/>
  <path class="fil0" d="M1439 1037c-249,0 -411,-267 -290,-489l32 -49c-312,-153 -685,73 -685,428l0 400c0,22 -18,40 -40,40l-41 0c-57,0 -104,47 -104,104 0,57 47,104 104,104l1114 0c58,0 104,-47 104,-104 0,-57 -46,-104 -104,-104l-41 0c-22,0 -40,-18 -40,-40l0 -290 -9 0zm-197 -596c216,-160 527,-6 527,265 0,152 -102,279 -241,318l0 263c103,0 185,82 185,184 0,101 -82,184 -184,184l-326 0c-17,112 -114,198 -231,198 -116,0 -213,-86 -231,-198l-326 0c-101,0 -184,-83 -184,-184 0,-102 82,-184 185,-184l0 -360c0,-240 153,-445 367,-523 -12,-135 74,-257 189,-257 115,0 202,122 190,257 27,10 54,23 80,37zm-380 -59c72,-15 148,-15 221,0 1,-85 -49,-155 -111,-155 -62,0 -111,69 -110,155zm355 208c-95,180 56,399 265,363 117,-21 207,-123 207,-246 0,-139 -112,-251 -250,-251 -95,0 -181,55 -222,134zm-394 1065c37,156 261,156 299,0l-299 0z"/>
  <path class="fil1" d="M1439 1037c-249,0 -411,-267 -290,-489l32 -49c-312,-153 -685,73 -685,428l0 400c0,22 -18,40 -40,40l-41 0c-57,0 -104,47 -104,104 0,57 47,104 104,104l1114 0c58,0 104,-47 104,-104 0,-57 -46,-104 -104,-104l-41 0c-22,0 -40,-18 -40,-40l0 -290 -9 0z"/>
  <path class="fil2" d="M1217 590c-95,180 56,399 265,363 117,-21 207,-123 207,-246 0,-139 -112,-251 -250,-251 -95,0 -181,55 -222,134z"/>
  <path class="fil2" d="M1122 1655l-299 0c37,156 261,156 299,0z"/>
  <path class="fil3" d="M862 382c72,-15 148,-15 221,0 1,-85 -49,-155 -111,-155 -62,0 -111,69 -110,155z"/>
 </g>
</svg>
